
<svg xmlns="http://www.w3.org/2000/svg" width="1000" height="1000" viewBox="0 0 1000 1000"><rect width="100%" height="100%" fill="#DDDDDD"/><path fill="#999999" d="M218.28 500.925h11.55q4.26 0 7.42-1.07 3.16-1.06 5.26-3.04 2.1-1.99 3.14-4.83 1.03-2.85 1.03-6.36 0-3.33-1.03-6.04-1.04-2.7-3.11-4.6-2.07-1.89-5.23-2.9t-7.48-1.01h-11.55zm-15.47-41.81h27.02q8.34 0 14.44 1.96 6.09 1.96 10.06 5.46 3.97 3.51 5.89 8.4 1.93 4.88 1.93 10.69 0 6.04-2.01 11.07-2.02 5.03-6.04 8.66-4.03 3.62-10.09 5.63-6.07 2.01-14.18 2.01h-11.55v29.27h-15.47zm69.11-2.3h14.21v85.45h-14.21zm59.57 70.21v-9.95q-6.15.29-10.35 1.07-4.19.77-6.72 1.98t-3.63 2.82q-1.09 1.61-1.09 3.51 0 3.73 2.21 5.35 2.22 1.6 5.78 1.6 4.37 0 7.56-1.58 3.2-1.58 6.24-4.8m-30.01-30.99-2.53-4.54q10.18-9.32 24.49-9.32 5.18 0 9.26 1.7 4.08 1.69 6.9 4.71t4.28 7.22q1.47 4.2 1.47 9.2v37.26h-6.44q-2.01 0-3.1-.6-1.1-.61-1.73-2.45l-1.26-4.25q-2.25 2.01-4.37 3.53-2.13 1.53-4.43 2.56-2.3 1.04-4.92 1.58-2.61.55-5.78.55-3.73 0-6.9-1.01-3.16-1-5.46-3.01-2.3-2.02-3.56-5.01-1.27-2.99-1.27-6.96 0-2.24.75-4.45t2.44-4.23q1.7-2.01 4.4-3.79 2.7-1.79 6.64-3.11t9.17-2.15q5.24-.84 11.96-1.01v-3.45q0-5.92-2.53-8.77t-7.3-2.85q-3.45 0-5.72.81-2.27.8-4 1.81-1.72 1.01-3.13 1.81-1.41.81-3.13.81-1.5 0-2.53-.78-1.04-.78-1.67-1.81m103.21-5.46-3.74 5.17q-.63.81-1.23 1.27-.61.46-1.76.46-1.09 0-2.12-.66-1.04-.67-2.48-1.5-1.43-.83-3.42-1.49-1.98-.67-4.91-.67-3.74 0-6.56 1.36-2.82 1.35-4.69 3.88-1.86 2.53-2.78 6.12t-.92 8.14q0 4.71 1 8.39 1.01 3.68 2.91 6.18 1.89 2.5 4.6 3.8 2.7 1.29 6.09 1.29t5.49-.83q2.1-.84 3.54-1.84 1.44-1.01 2.5-1.84t2.39-.83q1.72 0 2.58 1.32l4.09 5.17q-2.36 2.76-5.12 4.63t-5.72 2.99-6.1 1.58q-3.13.46-6.24.46-5.46 0-10.29-2.04t-8.45-5.95-5.72-9.57q-2.1-5.67-2.1-12.91 0-6.5 1.87-12.05t5.49-9.6q3.62-4.06 8.97-6.36 5.35-2.29 12.3-2.29 6.62 0 11.59 2.12 4.97 2.13 8.94 6.1m20.64 15.41h26.8q0-2.76-.78-5.21-.77-2.44-2.33-4.28-1.55-1.84-3.93-2.9-2.39-1.07-5.55-1.07-6.16 0-9.69 3.51-3.54 3.51-4.52 9.95m36.23 8.57h-36.51q.34 4.54 1.61 7.84 1.26 3.31 3.33 5.47 2.07 2.15 4.92 3.22 2.84 1.06 6.29 1.06t5.95-.81q2.51-.8 4.37-1.78 1.87-.98 3.28-1.78t2.73-.8q1.79 0 2.65 1.32l4.08 5.17q-2.36 2.76-5.29 4.63t-6.12 2.99-6.5 1.58-6.41.46q-6.15 0-11.44-2.04t-9.2-6.04q-3.91-3.99-6.16-9.89-2.24-5.89-2.24-13.65 0-6.04 1.96-11.36 1.95-5.32 5.6-9.26t8.91-6.24q5.27-2.29 11.88-2.29 5.58 0 10.29 1.78 4.72 1.78 8.11 5.2t5.32 8.4q1.92 4.97 1.92 11.35 0 3.22-.69 4.34-.69 1.13-2.64 1.13m28.17-57.74v32.78q3.45-3.22 7.59-5.23t9.72-2.01q4.83 0 8.57 1.63 3.74 1.64 6.24 4.6t3.79 7.08q1.3 4.11 1.3 9.05v37.55h-14.21v-37.55q0-5.4-2.47-8.36-2.47-2.97-7.53-2.97-3.68 0-6.9 1.67t-6.1 4.55v42.66h-14.2v-85.45zm76.77 25.54q6.55 0 11.93 2.12 5.37 2.13 9.2 6.04 3.82 3.91 5.89 9.55 2.07 5.63 2.07 12.59 0 7.01-2.07 12.65-2.07 5.63-5.89 9.6-3.83 3.97-9.2 6.09-5.38 2.13-11.93 2.13-6.62 0-12.02-2.13-5.41-2.12-9.23-6.09t-5.92-9.6q-2.1-5.64-2.1-12.65 0-6.96 2.1-12.59 2.1-5.64 5.92-9.55t9.23-6.04q5.4-2.12 12.02-2.12m0 49.85q7.36 0 10.89-4.95 3.54-4.94 3.54-14.49 0-9.54-3.54-14.55-3.53-5-10.89-5-7.48 0-11.07 5.03-3.6 5.04-3.6 14.52 0 9.49 3.6 14.46 3.59 4.98 11.07 4.98m40.13-75.39h14.2v85.45h-14.2zm65.44 67.97v-26.45q-2.42-2.93-5.26-4.14-2.85-1.21-6.13-1.21-3.22 0-5.81 1.21-2.58 1.21-4.42 3.65t-2.82 6.21-.98 8.88q0 5.18.84 8.77.83 3.6 2.38 5.87t3.8 3.28q2.24 1 5 1 4.43 0 7.53-1.84 3.11-1.84 5.87-5.23m0-67.97h14.2v85.45h-8.68q-2.82 0-3.57-2.59l-1.21-5.69q-3.56 4.08-8.19 6.61t-10.78 2.53q-4.83 0-8.86-2.01-4.02-2.01-6.92-5.84-2.91-3.82-4.49-9.46-1.58-5.63-1.58-12.88 0-6.55 1.78-12.19 1.78-5.63 5.12-9.77 3.33-4.14 7.99-6.47t10.47-2.33q4.94 0 8.45 1.55 3.51 1.56 6.27 4.2zm39.44 49.17h26.8q0-2.76-.78-5.21-.78-2.44-2.33-4.28t-3.94-2.9q-2.38-1.07-5.55-1.07-6.15 0-9.68 3.51-3.54 3.51-4.52 9.95m36.23 8.57h-36.52q.35 4.54 1.61 7.84 1.27 3.31 3.34 5.47 2.07 2.15 4.92 3.22 2.84 1.06 6.29 1.06t5.95-.81q2.5-.8 4.37-1.78t3.28-1.78 2.73-.8q1.78 0 2.65 1.32l4.08 5.17q-2.36 2.76-5.29 4.63t-6.12 2.99q-3.2 1.12-6.5 1.58-3.31.46-6.41.46-6.16 0-11.45-2.04t-9.2-6.04q-3.91-3.99-6.15-9.89-2.24-5.89-2.24-13.65 0-6.04 1.95-11.36 1.96-5.32 5.61-9.26t8.91-6.24q5.26-2.29 11.88-2.29 5.57 0 10.29 1.78 4.71 1.78 8.11 5.2 3.39 3.42 5.32 8.4 1.92 4.97 1.92 11.35 0 3.22-.69 4.34-.69 1.13-2.64 1.13m26.5-27.72.87 6.67q2.76-5.29 6.55-8.31 3.8-3.02 8.97-3.02 4.08 0 6.56 1.79l-.92 10.63q-.29 1.04-.84 1.47-.54.43-1.46.43-.87 0-2.56-.29-1.7-.28-3.31-.28-2.36 0-4.2.68-1.84.69-3.3 1.99-1.47 1.29-2.59 3.13t-2.1 4.2v36.34h-14.2v-59h8.34q2.18 0 3.04.78.87.78 1.15 2.79"/></svg>